<?xml version="1.0" standalone="no"?>
<!DOCTYPE svg PUBLIC "-//W3C//DTD SVG 20010904//EN"
 "http://www.w3.org/TR/2001/REC-SVG-20010904/DTD/svg10.dtd">
<svg version="1.0" xmlns="http://www.w3.org/2000/svg"
 width="512.000000pt" height="512.000000pt" viewBox="0 0 512.000000 512.000000"
 preserveAspectRatio="xMidYMid meet">

<g transform="translate(0.000000,512.000000) scale(0.100000,-0.100000)"
fill="#000000" stroke="none">
<path d="M985 5108 c-41 -23 -44 -38 -45 -185 l0 -143 -221 0 c-223 0 -249 -4
-276 -39 -10 -12 -12 -531 -13 -2348 0 -1282 3 -2339 6 -2348 18 -47 -59 -45
1869 -45 1354 0 1812 3 1828 12 45 23 46 32 47 271 l0 227 214 0 c217 0 258 5
282 38 11 14 13 330 14 1672 l0 1655 -623 622 -622 623 -1220 0 c-899 -1
-1225 -4 -1240 -12z m2345 -731 l0 -574 26 -24 26 -24 569 -3 569 -2 0 -1535
0 -1535 -1705 0 -1705 0 0 2135 0 2135 1110 0 1110 0 0 -573z m620 -2 l445
-445 -448 0 -447 0 0 445 c0 245 1 445 3 445 1 0 202 -200 447 -445z m-3010
-1784 l0 -2020 24 -28 24 -28 1511 -3 1511 -2 0 -170 0 -170 -1705 0 -1705 0
0 2220 0 2220 170 0 170 0 0 -2019z"/>
<path d="M1476 4324 l-26 -27 0 -279 c0 -284 3 -307 39 -335 12 -9 93 -12 301
-13 319 0 321 0 340 68 13 48 13 496 0 544 -19 68 -21 68 -341 68 l-286 0 -27
-26z m484 -314 l0 -170 -165 0 -165 0 0 170 0 170 165 0 165 0 0 -170z"/>
<path d="M1479 3471 c-37 -37 -38 -78 -4 -115 23 -25 27 -26 145 -26 115 0
122 1 145 25 35 34 34 88 -1 120 -25 24 -34 25 -141 25 -113 0 -115 0 -144
-29z"/>
<path d="M1989 3471 c-31 -31 -36 -59 -17 -94 25 -48 -19 -46 1101 -47 l1058
0 24 25 c42 41 31 105 -22 133 -16 9 -292 12 -1068 12 l-1047 0 -29 -29z"/>
<path d="M1504 2980 c-54 -22 -70 -95 -30 -135 30 -30 76 -39 182 -33 71 4 88
8 109 28 43 40 32 110 -22 138 -25 14 -207 15 -239 2z"/>
<path d="M2020 2983 c-79 -29 -74 -139 8 -163 26 -8 347 -10 1070 -8 l1034 3
24 28 c35 41 32 88 -7 121 l-31 26 -1041 -1 c-573 0 -1049 -3 -1057 -6z"/>
<path d="M1503 2466 c-57 -26 -70 -85 -29 -133 24 -28 25 -28 144 -28 114 0
122 1 146 24 36 34 36 88 0 122 -23 22 -35 24 -127 27 -72 1 -111 -2 -134 -12z"/>
<path d="M2014 2466 c-62 -27 -68 -112 -10 -147 30 -19 63 -19 1078 -17 l1046
3 26 24 c36 34 36 88 0 122 l-26 24 -1041 2 c-856 2 -1048 0 -1073 -11z"/>
<path d="M1513 1959 c-66 -19 -83 -90 -34 -140 29 -28 32 -29 136 -29 136 0
174 19 175 85 0 42 -24 72 -68 85 -45 12 -165 12 -209 -1z"/>
<path d="M2035 1962 c-76 -25 -97 -91 -46 -143 l29 -29 1047 0 c776 0 1052 3
1068 12 32 17 46 39 47 73 0 42 -24 72 -68 85 -41 11 -2042 13 -2077 2z"/>
<path d="M1476 1424 c-17 -18 -26 -37 -26 -59 0 -22 9 -41 26 -59 26 -25 30
-26 146 -26 113 0 120 1 143 25 34 33 34 87 0 120 -23 24 -30 25 -143 25 -116
0 -120 -1 -146 -26z"/>
<path d="M1986 1419 c-14 -17 -26 -41 -26 -54 0 -13 12 -37 26 -54 l26 -31
1057 0 1058 0 27 25 c35 32 36 86 1 120 l-24 25 -1060 0 -1059 0 -26 -31z"/>
</g>
</svg>
